<svg width="200" height="200" viewBox="0 0 100 100" fill="none" xmlns="http://www.w3.org/2000/svg">
  <!-- 背景框（可选） -->
  <rect width="100" height="100" rx="24" fill="none"/>
  
  <!-- 护目镜在头顶的猫咪 Copilot -->
  <path fill-rule="evenodd" clip-rule="evenodd" 
        d="M20 38C19.5 36 20 34 21 32L17 22C16.5 20.5 18 19 19.5 19.5L31 23.5C36 21 42 20 50 20C58 20 64 21 69 23.5L80.5 19.5C82 19 83.5 20.5 83 22L79 32C80 34 80.5 36 80 38C84 42 86 48 86 54C86 71.1 69.9 85 50 85C30.1 85 14 71.1 14 54C14 48 16 42 20 38ZM30 36C29 36 28 37 28 38V44C28 47.3 30.7 50 34 50H40C43.3 50 46 47.3 46 44V38C46 34.7 43.3 32 40 32H34C31.8 32 30 33.8 30 36ZM54 38V44C54 47.3 56.7 50 60 50H66C69.3 50 72 47.3 72 44V38C72 34.7 69.3 32 66 32H60C56.7 32 54 34.7 54 38ZM35 62C35 60.34 36.34 59 38 59C39.66 59 41 60.34 41 62C41 63.66 39.66 65 38 65C36.34 65 35 63.66 35 62ZM62 59C60.34 59 59 60.34 59 62C59 63.66 60.34 65 62 65C63.66 65 65 63.66 65 62C65 60.34 63.66 59 62 59ZM50 66C48.5 66 47 67 47 68C47 69 48.5 70 50 70C51.5 70 53 69 53 68C53 67 51.5 66 50 66Z" 
        fill="#d4694a"/>
</svg>
